<?xml version="1.0" encoding="UTF-8"?>
<svg xmlns="http://www.w3.org/2000/svg" viewBox="0 0 64 64" width="512" height="512"><g id="Layer_13" data-name="Layer 13"><path d="M32,58,51.039,44.673A25.7,25.7,0,0,0,62,23.621h0A17.62,17.62,0,0,0,44.38,6h0A17.62,17.62,0,0,0,33.1,10.084L32,11l-1.1-.916A17.62,17.62,0,0,0,19.621,6h0A17.62,17.62,0,0,0,2,23.62H2A25.7,25.7,0,0,0,12.961,44.673Z" style="fill:#b52f28"/><path d="M57.106,17.723a31.349,31.349,0,0,0-.808-7.054,17.582,17.582,0,0,0-23.2-.585L32,11l-1.1-.916A17.621,17.621,0,0,0,2,23.62,25.7,25.7,0,0,0,12.961,44.673l4.586,3.21a31.275,31.275,0,0,0,39.559-30.16Z" style="fill:#d23f34"/><path d="M55.618,30,52.9,24.553a1,1,0,0,0-1.865.2l-2.344,9.378L46.9,30.553A1,1,0,0,0,46,30H42.835L40.983,19.821A1,1,0,0,0,40.02,19H40a1,1,0,0,0-.977.783L35.844,34.092l-2.888-9.386a1,1,0,0,0-.874-.7,1.015,1.015,0,0,0-.977.55L28.382,30H25a1,1,0,0,0-.958.713l-2.07,6.9L15.953,18.7a1,1,0,0,0-.946-.7H15a1,1,0,0,0-.948.684L10.279,30H2.81c.174.677.379,1.342.606,2H11a1,1,0,0,0,.948-.684l3.03-9.087L21.047,41.3A1,1,0,0,0,22,42h.008a1,1,0,0,0,.95-.713L25.744,32H29a1,1,0,0,0,.895-.553l1.883-3.767,3.266,10.614a.973.973,0,0,0,1,.705,1,1,0,0,0,.937-.782L39.9,25.051l1.115,6.128A1,1,0,0,0,42,32h3.382l2.723,5.447a1,1,0,0,0,1.865-.2l2.344-9.378,1.791,3.582A1,1,0,0,0,55,32h5.584c.227-.658.432-1.323.606-2Z" style="fill:#f8ced7"/><path d="M44.38,5A18.656,18.656,0,0,0,32.46,9.315L32,9.7l-.459-.382A18.62,18.62,0,0,0,1,23.621,26.717,26.717,0,0,0,12.388,45.492L31.427,58.819a1,1,0,0,0,1.146,0L51.612,45.492A26.717,26.717,0,0,0,63,23.621,18.641,18.641,0,0,0,44.38,5ZM19.62,7a16.651,16.651,0,0,1,10.641,3.853l1.1.916a1,1,0,0,0,1.28,0l1.1-.917A16.62,16.62,0,0,1,61,23.621,24.624,24.624,0,0,1,60.15,30H55.618L52.9,24.553a1,1,0,0,0-1.865.2l-2.344,9.378L46.9,30.553A1,1,0,0,0,46,30H42.835L40.983,19.821A1,1,0,0,0,40.02,19H40a1,1,0,0,0-.977.783L35.844,34.092l-2.888-9.386a1,1,0,0,0-.874-.7,1.015,1.015,0,0,0-.977.55L28.382,30H25a1,1,0,0,0-.958.713l-2.07,6.9L15.953,18.7a1,1,0,0,0-.946-.7H15a1,1,0,0,0-.948.684L10.279,30H3.85A24.624,24.624,0,0,1,3,23.621,16.639,16.639,0,0,1,19.62,7ZM50.466,43.854,32,56.779,13.534,43.854A24.706,24.706,0,0,1,4.476,32H11a1,1,0,0,0,.948-.684l3.03-9.087L21.047,41.3A1,1,0,0,0,22,42h.008a1,1,0,0,0,.95-.713L25.744,32H29a1,1,0,0,0,.895-.553l1.883-3.767,3.266,10.614a.973.973,0,0,0,1,.705,1,1,0,0,0,.937-.782L39.9,25.051l1.115,6.128A1,1,0,0,0,42,32h3.382l2.723,5.447a1,1,0,0,0,1.865-.2l2.344-9.378,1.791,3.582A1,1,0,0,0,55,32h4.524A24.706,24.706,0,0,1,50.466,43.854Z"/></g></svg>
